<svg xmlns="http://www.w3.org/2000/svg" xmlns:xlink="http://www.w3.org/1999/xlink" width="90" zoomAndPan="magnify" viewBox="0 0 67.5 30.000001" height="40" preserveAspectRatio="xMidYMid meet" version="1.0"><defs><g/><clipPath id="12093fac34"><path d="M 1 2.925781 L 17.664062 2.925781 L 17.664062 22.667969 L 1 22.667969 Z M 1 2.925781 " clip-rule="nonzero"/></clipPath></defs><g fill="#7ed957" fill-opacity="1"><g transform="translate(21.521371, 19.456557)"><g><path d="M 2.9375 -3.921875 L 2.9375 0 L 0.703125 0 L 0.703125 -9.765625 L 2.9375 -9.765625 L 2.9375 -5.875 L 6.09375 -5.875 L 6.09375 -9.765625 L 8.3125 -9.765625 L 8.3125 0 L 6.09375 0 L 6.09375 -3.921875 Z M 2.9375 -3.921875 "/></g></g></g><g fill="#7ed957" fill-opacity="1"><g transform="translate(32.70638, 19.456557)"><g><path d="M 0.265625 -4.890625 C 0.265625 -6.304688 0.742188 -7.503906 1.703125 -8.484375 C 2.671875 -9.460938 3.835938 -9.953125 5.203125 -9.953125 C 6.566406 -9.953125 7.722656 -9.460938 8.671875 -8.484375 C 9.628906 -7.503906 10.109375 -6.304688 10.109375 -4.890625 C 10.109375 -3.460938 9.640625 -2.257812 8.703125 -1.28125 C 7.765625 -0.3125 6.597656 0.171875 5.203125 0.171875 C 3.773438 0.171875 2.59375 -0.304688 1.65625 -1.265625 C 0.726562 -2.234375 0.265625 -3.441406 0.265625 -4.890625 Z M 2.671875 -4.890625 C 2.671875 -4.378906 2.75 -3.910156 2.90625 -3.484375 C 3.070312 -3.066406 3.347656 -2.710938 3.734375 -2.421875 C 4.128906 -2.128906 4.617188 -1.984375 5.203125 -1.984375 C 6.023438 -1.984375 6.644531 -2.265625 7.0625 -2.828125 C 7.488281 -3.398438 7.703125 -4.085938 7.703125 -4.890625 C 7.703125 -5.691406 7.488281 -6.378906 7.0625 -6.953125 C 6.632812 -7.523438 6.015625 -7.8125 5.203125 -7.8125 C 4.390625 -7.8125 3.765625 -7.523438 3.328125 -6.953125 C 2.890625 -6.378906 2.671875 -5.691406 2.671875 -4.890625 Z M 2.671875 -4.890625 "/></g></g></g><g fill="#7ed957" fill-opacity="1"><g transform="translate(45.253911, 19.456557)"><g><path d="M 8.78125 0 L 8.328125 -5.796875 L 8.265625 -5.796875 L 6.265625 -0.0625 L 4.9375 -0.0625 L 2.9375 -5.796875 L 2.875 -5.796875 L 2.421875 0 L 0.1875 0 L 1.0625 -9.765625 L 3.4375 -9.765625 L 5.609375 -4.140625 L 7.765625 -9.765625 L 10.140625 -9.765625 L 11.015625 0 Z M 8.78125 0 "/></g></g></g><g fill="#7ed957" fill-opacity="1"><g transform="translate(58.618957, 19.456557)"><g><path d="M 6.296875 -9.765625 L 6.296875 -7.8125 L 2.9375 -7.8125 L 2.9375 -5.875 L 6.15625 -5.875 L 6.15625 -3.921875 L 2.9375 -3.921875 L 2.9375 -1.953125 L 6.296875 -1.953125 L 6.296875 0 L 0.703125 0 L 0.703125 -9.765625 Z M 6.296875 -9.765625 "/></g></g></g><g clip-path="url(#12093fac34)"><path fill="#ffffff" d="M 15.03125 13.386719 C 15.058594 16.367188 17.621094 17.359375 17.648438 17.371094 C 17.628906 17.441406 17.238281 18.785156 16.300781 20.171875 C 15.488281 21.371094 14.644531 22.566406 13.3125 22.589844 C 12.007812 22.617188 11.585938 21.808594 10.09375 21.808594 C 8.601562 21.808594 8.136719 22.566406 6.898438 22.617188 C 5.617188 22.664062 4.640625 21.316406 3.820312 20.125 C 2.144531 17.679688 0.863281 13.214844 2.582031 10.203125 C 3.4375 8.707031 4.960938 7.757812 6.617188 7.734375 C 7.878906 7.710938 9.066406 8.589844 9.839844 8.589844 C 10.609375 8.589844 12.054688 7.53125 13.570312 7.6875 C 14.207031 7.714844 15.992188 7.945312 17.140625 9.640625 C 17.046875 9.695312 15.007812 10.894531 15.03125 13.386719 M 12.578125 6.070312 C 13.257812 5.238281 13.714844 4.078125 13.589844 2.925781 C 12.609375 2.964844 11.421875 3.585938 10.71875 4.417969 C 10.085938 5.152344 9.535156 6.332031 9.683594 7.464844 C 10.777344 7.546875 11.894531 6.902344 12.578125 6.070312 " fill-opacity="1" fill-rule="nonzero"/></g></svg>